<?xml version="1.0" encoding="UTF-8"?>
<svg width="100" height="100" viewBox="0 0 100 100" xmlns="http://www.w3.org/2000/svg">
  <rect width="100" height="100" fill="#DE2910"/>
  <g transform="translate(10,10) scale(0.8)">
    <!-- Big star -->
    <polygon fill="#FFDE00" points="10,0 12.2,7.7 20,6.4 13.9,12.7 16,20 10,15.2 4,20 6.1,12.7 0,6.4 7.8,7.7"/>
    
    <!-- Small stars -->
    <g transform="translate(30, 5) scale(0.4)">
      <polygon fill="#FFDE00" points="10,0 12.2,7.7 20,6.4 13.9,12.7 16,20 10,15.2 4,20 6.1,12.7 0,6.4 7.8,7.7"/>
    </g>
    <g transform="translate(36, 20) scale(0.4)">
      <polygon fill="#FFDE00" points="10,0 12.2,7.7 20,6.4 13.9,12.7 16,20 10,15.2 4,20 6.1,12.7 0,6.4 7.8,7.7"/>
    </g>
    <g transform="translate(33, 35) scale(0.4)">
      <polygon fill="#FFDE00" points="10,0 12.2,7.7 20,6.4 13.9,12.7 16,20 10,15.2 4,20 6.1,12.7 0,6.4 7.8,7.7"/>
    </g>
    <g transform="translate(20, 38) scale(0.4)">
      <polygon fill="#FFDE00" points="10,0 12.2,7.7 20,6.4 13.9,12.7 16,20 10,15.2 4,20 6.1,12.7 0,6.4 7.8,7.7"/>
    </g>
  </g>
</svg> 