<?xml version="1.0" encoding="UTF-8"?>
<svg width="100" height="100" viewBox="0 0 100 100" xmlns="http://www.w3.org/2000/svg">
  <rect width="100" height="100" fill="#ffffff"/>
  <g>
    <rect width="100" height="7.69" fill="#B22234"/>
    <rect y="15.38" width="100" height="7.69" fill="#B22234"/>
    <rect y="30.76" width="100" height="7.69" fill="#B22234"/>
    <rect y="46.14" width="100" height="7.69" fill="#B22234"/>
    <rect y="61.52" width="100" height="7.69" fill="#B22234"/>
    <rect y="76.9" width="100" height="7.69" fill="#B22234"/>
    <rect y="92.28" width="100" height="7.69" fill="#B22234"/>
    <rect width="40" height="53.85" fill="#3C3B6E"/>
    <g fill="#FFFFFF">
      <circle cx="5" cy="5" r="2"/>
      <circle cx="15" cy="5" r="2"/>
      <circle cx="25" cy="5" r="2"/>
      <circle cx="35" cy="5" r="2"/>
      <circle cx="10" cy="10" r="2"/>
      <circle cx="20" cy="10" r="2"/>
      <circle cx="30" cy="10" r="2"/>
      <circle cx="5" cy="15" r="2"/>
      <circle cx="15" cy="15" r="2"/>
      <circle cx="25" cy="15" r="2"/>
      <circle cx="35" cy="15" r="2"/>
      <circle cx="10" cy="20" r="2"/>
      <circle cx="20" cy="20" r="2"/>
      <circle cx="30" cy="20" r="2"/>
      <circle cx="5" cy="25" r="2"/>
      <circle cx="15" cy="25" r="2"/>
      <circle cx="25" cy="25" r="2"/>
      <circle cx="35" cy="25" r="2"/>
      <circle cx="10" cy="30" r="2"/>
      <circle cx="20" cy="30" r="2"/>
      <circle cx="30" cy="30" r="2"/>
      <circle cx="5" cy="35" r="2"/>
      <circle cx="15" cy="35" r="2"/>
      <circle cx="25" cy="35" r="2"/>
      <circle cx="35" cy="35" r="2"/>
      <circle cx="10" cy="40" r="2"/>
      <circle cx="20" cy="40" r="2"/>
      <circle cx="30" cy="40" r="2"/>
      <circle cx="5" cy="45" r="2"/>
      <circle cx="15" cy="45" r="2"/>
      <circle cx="25" cy="45" r="2"/>
      <circle cx="35" cy="45" r="2"/>
    </g>
  </g>
</svg> 